<svg xmlns="http://www.w3.org/2000/svg" viewBox="0 0 32 32">
  <defs>
    <linearGradient id="favGrad" x1="0%" y1="0%" x2="100%" y2="100%">
      <stop offset="0%" style="stop-color:#0EA5E9"/>
      <stop offset="100%" style="stop-color:#06B6D4"/>
    </linearGradient>
  </defs>
  
  <!-- Background -->
  <rect width="32" height="32" rx="7" fill="#0F172A"/>
  
  <!-- Brackets -->
  <path d="M8 9 L5 9 Q3 9 3 11 L3 21 Q3 23 5 23 L8 23" 
        stroke="url(#favGrad)" stroke-width="2" fill="none" stroke-linecap="round"/>
  <path d="M24 9 L27 9 Q29 9 29 11 L29 21 Q29 23 27 23 L24 23" 
        stroke="url(#favGrad)" stroke-width="2" fill="none" stroke-linecap="round"/>
  
  <!-- T shape -->
  <rect x="10" y="11" width="12" height="3" rx="1.5" fill="url(#favGrad)"/>
  <rect x="14.5" y="11" width="3" height="12" rx="1.5" fill="url(#favGrad)"/>
  
  <!-- Center dot -->
  <circle cx="16" cy="17" r="2" fill="#2DD4BF"/>
</svg>
<svg xmlns="http://www.w3.org/2000/svg" viewBox="0 0 32 32">
  <defs>
    <linearGradient id="favGrad" x1="0%" y1="0%" x2="100%" y2="100%">
      <stop offset="0%" style="stop-color:#0EA5E9"/>
      <stop offset="100%" style="stop-color:#06B6D4"/>
    </linearGradient>
  </defs>
  
  <!-- Background -->
  <rect width="32" height="32" rx="7" fill="#0F172A"/>
  
  <!-- Brackets -->
  <path d="M8 9 L5 9 Q3 9 3 11 L3 21 Q3 23 5 23 L8 23" 
        stroke="url(#favGrad)" stroke-width="2" fill="none" stroke-linecap="round"/>
  <path d="M24 9 L27 9 Q29 9 29 11 L29 21 Q29 23 27 23 L24 23" 
        stroke="url(#favGrad)" stroke-width="2" fill="none" stroke-linecap="round"/>
  
  <!-- T shape -->
  <rect x="10" y="11" width="12" height="3" rx="1.5" fill="url(#favGrad)"/>
  <rect x="14.5" y="11" width="3" height="12" rx="1.5" fill="url(#favGrad)"/>
  
  <!-- Center dot -->
  <circle cx="16" cy="17" r="2" fill="#2DD4BF"/>
</svg>
